{
  "filename": {},
  "mutagen": {
    "duration": 27311,
    "bitrate": "87 kbps",
    "samplerate": "44.1 kHz",
    "bitdepth": "16 Bit (lossy)",
    "codec": "aac lc",
    "size": "286.21 MB",
    "tagtype": "plain",
    "container": "m4b",
    "has_art": "No",
    "title": "Geben und Nehmen",
    "artist": "Adam Grant",
    "album": "Geben und Nehmen",
    "date": "2022-01-31T15:42:55Z",
    "genre": "Hörbuch",
    "track": "1/32",
    "totaltracks": "",
    "disc": "1/1",
    "totaldiscs": "",
    "full_tags": {
      "ffprobe_json": {
        "streams": [
          {
            "index": 0,
            "codec_name": "aac",
            "codec_long_name": "AAC (Advanced Audio Coding)",
            "profile": "LC",
            "codec_type": "audio",
            "codec_tag_string": "mp4a",
            "codec_tag": "0x6134706d",
            "sample_fmt": "fltp",
            "sample_rate": "44100",
            "channels": 2,
            "channel_layout": "stereo",
            "bits_per_sample": 0,
            "id": "0x1",
            "r_frame_rate": "0/0",
            "avg_frame_rate": "0/0",
            "time_base": "1/44100",
            "start_pts": 0,
            "start_time": "0.000000",
            "duration_ts": 1204448256,
            "duration": "27311.751837",
            "bit_rate": "86492",
            "nb_frames": "1176219",
            "extradata_size": 2,
            "disposition": {
              "default": 1,
              "dub": 0,
              "original": 0,
              "comment": 0,
              "lyrics": 0,
              "karaoke": 0,
              "forced": 0,
              "hearing_impaired": 0,
              "visual_impaired": 0,
              "clean_effects": 0,
              "attached_pic": 0,
              "timed_thumbnails": 0,
              "captions": 0,
              "descriptions": 0,
              "metadata": 0,
              "dependent": 0,
              "still_image": 0
            },
            "tags": {
              "creation_time": "2022-01-31T14:38:58.000000Z",
              "language": "und",
              "vendor_id": "[0][0][0][0]"
            }
          },
          {
            "index": 1,
            "codec_name": "bin_data",
            "codec_long_name": "binary data",
            "codec_type": "data",
            "codec_tag_string": "text",
            "codec_tag": "0x74786574",
            "id": "0x2",
            "r_frame_rate": "0/0",
            "avg_frame_rate": "0/0",
            "time_base": "1/44100",
            "start_pts": 0,
            "start_time": "0.000000",
            "duration_ts": 1204448256,
            "duration": "27311.751837",
            "nb_frames": "32",
            "extradata_size": 43,
            "disposition": {
              "default": 0,
              "dub": 0,
              "original": 0,
              "comment": 0,
              "lyrics": 0,
              "karaoke": 0,
              "forced": 0,
              "hearing_impaired": 0,
              "visual_impaired": 0,
              "clean_effects": 0,
              "attached_pic": 0,
              "timed_thumbnails": 0,
              "captions": 0,
              "descriptions": 0,
              "metadata": 0,
              "dependent": 0,
              "still_image": 0
            },
            "tags": {
              "creation_time": "2022-01-31T14:39:45.000000Z",
              "language": "und"
            }
          },
          {
            "index": 2,
            "codec_name": "mjpeg",
            "codec_long_name": "Motion JPEG",
            "profile": "Baseline",
            "codec_type": "video",
            "codec_tag_string": "[0][0][0][0]",
            "codec_tag": "0x0000",
            "width": 300,
            "height": 300,
            "coded_width": 300,
            "coded_height": 300,
            "closed_captions": 0,
            "film_grain": 0,
            "has_b_frames": 0,
            "sample_aspect_ratio": "1:1",
            "display_aspect_ratio": "1:1",
            "pix_fmt": "yuvj420p",
            "level": -99,
            "color_range": "pc",
            "color_space": "bt470bg",
            "chroma_location": "center",
            "refs": 1,
            "id": "0x0",
            "r_frame_rate": "90000/1",
            "avg_frame_rate": "0/0",
            "time_base": "1/90000",
            "start_pts": 0,
            "start_time": "0.000000",
            "duration_ts": 2458057665,
            "duration": "27311.751833",
            "bits_per_raw_sample": "8",
            "disposition": {
              "default": 0,
              "dub": 0,
              "original": 0,
              "comment": 0,
              "lyrics": 0,
              "karaoke": 0,
              "forced": 0,
              "hearing_impaired": 0,
              "visual_impaired": 0,
              "clean_effects": 0,
              "attached_pic": 1,
              "timed_thumbnails": 0,
              "captions": 0,
              "descriptions": 0,
              "metadata": 0,
              "dependent": 0,
              "still_image": 0
            }
          }
        ],
        "chapters": [
          {
            "id": 0,
            "time_base": "1/44100",
            "start": 0,
            "start_time": "0.000000",
            "end": 26505031,
            "end_time": "601.021111",
            "tags": {
              "title": "Kapitel 1"
            }
          },
          {
            "id": 1,
            "time_base": "1/44100",
            "start": 26505031,
            "start_time": "601.021111",
            "end": 52611411,
            "end_time": "1193.002517",
            "tags": {
              "title": "Kapitel 2"
            }
          },
          {
            "id": 2,
            "time_base": "1/44100",
            "start": 52611411,
            "start_time": "1193.002517",
            "end": 72721051,
            "end_time": "1649.003424",
            "tags": {
              "title": "Kapitel 3"
            }
          },
          {
            "id": 3,
            "time_base": "1/44100",
            "start": 72721051,
            "start_time": "1649.003424",
            "end": 87627560,
            "end_time": "1987.019501",
            "tags": {
              "title": "Kapitel 4"
            }
          },
          {
            "id": 4,
            "time_base": "1/44100",
            "start": 87627560,
            "start_time": "1987.019501",
            "end": 99842624,
            "end_time": "2264.005079",
            "tags": {
              "title": "Kapitel 5"
            }
          },
          {
            "id": 5,
            "time_base": "1/44100",
            "start": 99842624,
            "start_time": "2264.005079",
            "end": 152321879,
            "end_time": "3454.010862",
            "tags": {
              "title": "Kapitel 6"
            }
          },
          {
            "id": 6,
            "time_base": "1/44100",
            "start": 152321879,
            "start_time": "3454.010862",
            "end": 203654249,
            "end_time": "4618.010181",
            "tags": {
              "title": "Kapitel 7"
            }
          },
          {
            "id": 7,
            "time_base": "1/44100",
            "start": 203654249,
            "start_time": "4618.010181",
            "end": 234701050,
            "end_time": "5322.019274",
            "tags": {
              "title": "Kapitel 8"
            }
          },
          {
            "id": 8,
            "time_base": "1/44100",
            "start": 234701050,
            "start_time": "5322.019274",
            "end": 273111526,
            "end_time": "6193.005125",
            "tags": {
              "title": "Kapitel 9"
            }
          },
          {
            "id": 9,
            "time_base": "1/44100",
            "start": 273111526,
            "start_time": "6193.005125",
            "end": 341863948,
            "end_time": "7752.016961",
            "tags": {
              "title": "Kapitel 10"
            }
          },
          {
            "id": 10,
            "time_base": "1/44100",
            "start": 341863948,
            "start_time": "7752.016961",
            "end": 412732608,
            "end_time": "9359.016054",
            "tags": {
              "title": "Kapitel 11"
            }
          },
          {
            "id": 11,
            "time_base": "1/44100",
            "start": 412732608,
            "start_time": "9359.016054",
            "end": 447174363,
            "end_time": "10140.008231",
            "tags": {
              "title": "Kapitel 12"
            }
          },
          {
            "id": 12,
            "time_base": "1/44100",
            "start": 447174363,
            "start_time": "10140.008231",
            "end": 488716457,
            "end_time": "11082.005828",
            "tags": {
              "title": "Kapitel 13"
            }
          },
          {
            "id": 13,
            "time_base": "1/44100",
            "start": 488716457,
            "start_time": "11082.005828",
            "end": 523996826,
            "end_time": "11882.014195",
            "tags": {
              "title": "Kapitel 14"
            }
          },
          {
            "id": 14,
            "time_base": "1/44100",
            "start": 523996826,
            "start_time": "11882.014195",
            "end": 573300945,
            "end_time": "13000.021429",
            "tags": {
              "title": "Kapitel 15"
            }
          },
          {
            "id": 15,
            "time_base": "1/44100",
            "start": 573300945,
            "start_time": "13000.021429",
            "end": 610609402,
            "end_time": "13846.018186",
            "tags": {
              "title": "Kapitel 16"
            }
          },
          {
            "id": 16,
            "time_base": "1/44100",
            "start": 610609402,
            "start_time": "13846.018186",
            "end": 635569547,
            "end_time": "14412.007868",
            "tags": {
              "title": "Kapitel 17"
            }
          },
          {
            "id": 17,
            "time_base": "1/44100",
            "start": 635569547,
            "start_time": "14412.007868",
            "end": 691444708,
            "end_time": "15679.018322",
            "tags": {
              "title": "Kapitel 18"
            }
          },
          {
            "id": 18,
            "time_base": "1/44100",
            "start": 691444708,
            "start_time": "15679.018322",
            "end": 737088029,
            "end_time": "16714.014263",
            "tags": {
              "title": "Kapitel 19"
            }
          },
          {
            "id": 19,
            "time_base": "1/44100",
            "start": 737088029,
            "start_time": "16714.014263",
            "end": 779203357,
            "end_time": "17669.010363",
            "tags": {
              "title": "Kapitel 20"
            }
          },
          {
            "id": 20,
            "time_base": "1/44100",
            "start": 779203357,
            "start_time": "17669.010363",
            "end": 802356301,
            "end_time": "18194.020431",
            "tags": {
              "title": "Kapitel 21"
            }
          },
          {
            "id": 21,
            "time_base": "1/44100",
            "start": 802356301,
            "start_time": "18194.020431",
            "end": 832519971,
            "end_time": "18878.003878",
            "tags": {
              "title": "Kapitel 22"
            }
          },
          {
            "id": 22,
            "time_base": "1/44100",
            "start": 832519971,
            "start_time": "18878.003878",
            "end": 884999551,
            "end_time": "20068.017029",
            "tags": {
              "title": "Kapitel 23"
            }
          },
          {
            "id": 23,
            "time_base": "1/44100",
            "start": 884999551,
            "start_time": "20068.017029",
            "end": 929099681,
            "end_time": "21068.019977",
            "tags": {
              "title": "Kapitel 24"
            }
          },
          {
            "id": 24,
            "time_base": "1/44100",
            "start": 929099681,
            "start_time": "21068.019977",
            "end": 984709346,
            "end_time": "22329.010113",
            "tags": {
              "title": "Kapitel 25"
            }
          },
          {
            "id": 25,
            "time_base": "1/44100",
            "start": 984709346,
            "start_time": "22329.010113",
            "end": 1005921378,
            "end_time": "22810.008571",
            "tags": {
              "title": "Kapitel 26"
            }
          },
          {
            "id": 26,
            "time_base": "1/44100",
            "start": 1005921378,
            "start_time": "22810.008571",
            "end": 1034807308,
            "end_time": "23465.018322",
            "tags": {
              "title": "Kapitel 27"
            }
          },
          {
            "id": 27,
            "time_base": "1/44100",
            "start": 1034807308,
            "start_time": "23465.018322",
            "end": 1062148909,
            "end_time": "24085.009274",
            "tags": {
              "title": "Kapitel 28"
            }
          },
          {
            "id": 28,
            "time_base": "1/44100",
            "start": 1062148909,
            "start_time": "24085.009274",
            "end": 1099325650,
            "end_time": "24928.019274",
            "tags": {
              "title": "Kapitel 29"
            }
          },
          {
            "id": 29,
            "time_base": "1/44100",
            "start": 1099325650,
            "start_time": "24928.019274",
            "end": 1132444173,
            "end_time": "25679.006190",
            "tags": {
              "title": "Kapitel 30"
            }
          },
          {
            "id": 30,
            "time_base": "1/44100",
            "start": 1132444173,
            "start_time": "25679.006190",
            "end": 1177029688,
            "end_time": "26690.015601",
            "tags": {
              "title": "Kapitel 31"
            }
          },
          {
            "id": 31,
            "time_base": "1/44100",
            "start": 1177029688,
            "start_time": "26690.015601",
            "end": 1204448256,
            "end_time": "27311.751837",
            "tags": {
              "title": "Kapitel 32"
            }
          }
        ],
        "format": {
          "filename": "/home/xc/#Coding/gui_media_web_viewer/media/Adam Grant - Geben und Nehmen.m4b",
          "nb_streams": 3,
          "nb_programs": 0,
          "format_name": "mov,mp4,m4a,3gp,3g2,mj2",
          "format_long_name": "QuickTime / MOV",
          "start_time": "0.000000",
          "duration": "27311.751837",
          "size": "300111197",
          "bit_rate": "87906",
          "probe_score": 100,
          "tags": {
            "major_brand": "M4A",
            "minor_version": "0",
            "compatible_brands": "3gp5isom",
            "creation_time": "2022-01-31T14:38:58.000000Z",
            "title": "Geben und Nehmen",
            "artist": "Adam Grant",
            "composer": "Matthias Lühn",
            "album": "Geben und Nehmen",
            "genre": "Hörbuch",
            "track": "1/32",
            "disc": "1/1",
            "date": "2022-01-31T15:42:55Z",
            "encoder": "Chapter and Verse V 1.5",
            "Encoding Params": "vers",
            "media_type": "2",
            "album_artist": "Adam Grant",
            "comment": "Gute Typen haben immer das Nachsehen, und die Egoisten räumen ab – diese populäre Auffassung stimmt heute nicht mehr. Denn gerade mit einer altruistischen Einstellung kommt man meist besser voran. Im geschäftlichen Umgang wie im Privatleben müssen wir imm"
          }
        }
      },
      "ffmpeg_raw": "ffmpeg version 5.1.8-0+deb12u1 Copyright (c) 2000-2025 the FFmpeg developers\n  built with gcc 12 (Debian 12.2.0-14+deb12u1)\n  configuration: --prefix=/usr --extra-version=0+deb12u1 --toolchain=hardened --libdir=/usr/lib/x86_64-linux-gnu --incdir=/usr/include/x86_64-linux-gnu --arch=amd64 --enable-gpl --disable-stripping --enable-gnutls --enable-ladspa --enable-libaom --enable-libass --enable-libbluray --enable-libbs2b --enable-libcaca --enable-libcdio --enable-libcodec2 --enable-libdav1d --enable-libflite --enable-libfontconfig --enable-libfreetype --enable-libfribidi --enable-libglslang --enable-libgme --enable-libgsm --enable-libjack --enable-libmp3lame --enable-libmysofa --enable-libopenjpeg --enable-libopenmpt --enable-libopus --enable-libpulse --enable-librabbitmq --enable-librist --enable-librubberband --enable-libshine --enable-libsnappy --enable-libsoxr --enable-libspeex --enable-libsrt --enable-libssh --enable-libsvtav1 --enable-libtheora --enable-libtwolame --enable-libvidstab --enable-libvorbis --enable-libvpx --enable-libwebp --enable-libx265 --enable-libxml2 --enable-libxvid --enable-libzimg --enable-libzmq --enable-libzvbi --enable-lv2 --enable-omx --enable-openal --enable-opencl --enable-opengl --enable-sdl2 --disable-sndio --enable-libjxl --enable-pocketsphinx --enable-librsvg --enable-libmfx --enable-libdc1394 --enable-libdrm --enable-libiec61883 --enable-chromaprint --enable-frei0r --enable-libx264 --enable-libplacebo --enable-librav1e --enable-shared\n  libavutil      57. 28.100 / 57. 28.100\n  libavcodec     59. 37.100 / 59. 37.100\n  libavformat    59. 27.100 / 59. 27.100\n  libavdevice    59.  7.100 / 59.  7.100\n  libavfilter     8. 44.100 /  8. 44.100\n  libswscale      6.  7.100 /  6.  7.100\n  libswresample   4.  7.100 /  4.  7.100\n  libpostproc    56.  6.100 / 56.  6.100\n[mov,mp4,m4a,3gp,3g2,mj2 @ 0x5648ebd6e800] stream 0, timescale not set\nInput #0, mov,mp4,m4a,3gp,3g2,mj2, from '/home/xc/#Coding/gui_media_web_viewer/media/Adam Grant - Geben und Nehmen.m4b':\n  Metadata:\n    major_brand     : M4A\n    minor_version   : 0\n    compatible_brands: 3gp5isom\n    creation_time   : 2022-01-31T14:38:58.000000Z\n    title           : Geben und Nehmen\n    artist          : Adam Grant\n    composer        : Matthias Lühn\n    album           : Geben und Nehmen\n    genre           : Hörbuch\n    track           : 1/32\n    disc            : 1/1\n    date            : 2022-01-31T15:42:55Z\n    encoder         : Chapter and Verse V 1.5\n    Encoding Params : vers\n    media_type      : 2\n    album_artist    : Adam Grant\n    comment         : Gute Typen haben immer das Nachsehen, und die Egoisten räumen ab – diese populäre Auffassung stimmt heute nicht mehr. Denn gerade mit einer altruistischen Einstellung kommt man meist besser voran. Im geschäftlichen Umgang wie im Privatleben müssen w\n  Duration: 07:35:11.75, start: 0.000000, bitrate: 87 kb/s\n  Chapters:\n    Chapter #0:0: start 0.000000, end 601.021111\n      Metadata:\n        title           : Kapitel 1\n    Chapter #0:1: start 601.021111, end 1193.002517\n      Metadata:\n        title           : Kapitel 2\n    Chapter #0:2: start 1193.002517, end 1649.003424\n      Metadata:\n        title           : Kapitel 3\n    Chapter #0:3: start 1649.003424, end 1987.019501\n      Metadata:\n        title           : Kapitel 4\n    Chapter #0:4: start 1987.019501, end 2264.005079\n      Metadata:\n        title           : Kapitel 5\n    Chapter #0:5: start 2264.005079, end 3454.010862\n      Metadata:\n        title           : Kapitel 6\n    Chapter #0:6: start 3454.010862, end 4618.010181\n      Metadata:\n        title           : Kapitel 7\n    Chapter #0:7: start 4618.010181, end 5322.019274\n      Metadata:\n        title           : Kapitel 8\n    Chapter #0:8: start 5322.019274, end 6193.005125\n      Metadata:\n        title           : Kapitel 9\n    Chapter #0:9: start 6193.005125, end 7752.016961\n      Metadata:\n        title           : Kapitel 10\n    Chapter #0:10: start 7752.016961, end 9359.016054\n      Metadata:\n        title           : Kapitel 11\n    Chapter #0:11: start 9359.016054, end 10140.008231\n      Metadata:\n        title           : Kapitel 12\n    Chapter #0:12: start 10140.008231, end 11082.005828\n      Metadata:\n        title           : Kapitel 13\n    Chapter #0:13: start 11082.005828, end 11882.014195\n      Metadata:\n        title           : Kapitel 14\n    Chapter #0:14: start 11882.014195, end 13000.021429\n      Metadata:\n        title           : Kapitel 15\n    Chapter #0:15: start 13000.021429, end 13846.018186\n      Metadata:\n        title           : Kapitel 16\n    Chapter #0:16: start 13846.018186, end 14412.007868\n      Metadata:\n        title           : Kapitel 17\n    Chapter #0:17: start 14412.007868, end 15679.018322\n      Metadata:\n        title           : Kapitel 18\n    Chapter #0:18: start 15679.018322, end 16714.014263\n      Metadata:\n        title           : Kapitel 19\n    Chapter #0:19: start 16714.014263, end 17669.010363\n      Metadata:\n        title           : Kapitel 20\n    Chapter #0:20: start 17669.010363, end 18194.020431\n      Metadata:\n        title           : Kapitel 21\n    Chapter #0:21: start 18194.020431, end 18878.003878\n      Metadata:\n        title           : Kapitel 22\n    Chapter #0:22: start 18878.003878, end 20068.017029\n      Metadata:\n        title           : Kapitel 23\n    Chapter #0:23: start 20068.017029, end 21068.019977\n      Metadata:\n        title           : Kapitel 24\n    Chapter #0:24: start 21068.019977, end 22329.010113\n      Metadata:\n        title           : Kapitel 25\n    Chapter #0:25: start 22329.010113, end 22810.008571\n      Metadata:\n        title           : Kapitel 26\n    Chapter #0:26: start 22810.008571, end 23465.018322\n      Metadata:\n        title           : Kapitel 27\n    Chapter #0:27: start 23465.018322, end 24085.009274\n      Metadata:\n        title           : Kapitel 28\n    Chapter #0:28: start 24085.009274, end 24928.019274\n      Metadata:\n        title           : Kapitel 29\n    Chapter #0:29: start 24928.019274, end 25679.006190\n      Metadata:\n        title           : Kapitel 30\n    Chapter #0:30: start 25679.006190, end 26690.015601\n      Metadata:\n        title           : Kapitel 31\n    Chapter #0:31: start 26690.015601, end 27311.751837\n      Metadata:\n        title           : Kapitel 32\n  Stream #0:0[0x1](und): Audio: aac (LC) (mp4a / 0x6134706D), 44100 Hz, stereo, fltp, 86 kb/s (default)\n    Metadata:\n      creation_time   : 2022-01-31T14:38:58.000000Z\n      vendor_id       : [0][0][0][0]\n  Stream #0:1[0x2](und): Data: bin_data (text / 0x74786574)\n    Metadata:\n      creation_time   : 2022-01-31T14:39:45.000000Z\n  Stream #0:2[0x0]: Video: mjpeg (Baseline), yuvj420p(pc, bt470bg/unknown/unknown), 300x300 [SAR 96:96 DAR 1:1], 90k tbr, 90k tbn (attached pic)\nAt least one output file must be specified\n"
    },
    "audio_track_count": 1,
    "video_track_count": 0,
    "subtitle_count": 0,
    "frame_rate": "0/0",
    "video_scan_type": "Progressive",
    "video_chroma": "4:2:0",
    "video_bit_depth": "8 Bit",
    "video_color_space": "BT470BG",
    "video_hdr": "None",
    "chapters": [
      {
        "start": 0.0,
        "end": 601.021111,
        "title": "Kapitel 1"
      },
      {
        "start": 601.021111,
        "end": 1193.002517,
        "title": "Kapitel 2"
      },
      {
        "start": 1193.002517,
        "end": 1649.003424,
        "title": "Kapitel 3"
      },
      {
        "start": 1649.003424,
        "end": 1987.019501,
        "title": "Kapitel 4"
      },
      {
        "start": 1987.019501,
        "end": 2264.005079,
        "title": "Kapitel 5"
      },
      {
        "start": 2264.005079,
        "end": 3454.010862,
        "title": "Kapitel 6"
      },
      {
        "start": 3454.010862,
        "end": 4618.010181,
        "title": "Kapitel 7"
      },
      {
        "start": 4618.010181,
        "end": 5322.019274,
        "title": "Kapitel 8"
      },
      {
        "start": 5322.019274,
        "end": 6193.005125,
        "title": "Kapitel 9"
      },
      {
        "start": 6193.005125,
        "end": 7752.016961,
        "title": "Kapitel 10"
      },
      {
        "start": 7752.016961,
        "end": 9359.016054,
        "title": "Kapitel 11"
      },
      {
        "start": 9359.016054,
        "end": 10140.008231,
        "title": "Kapitel 12"
      },
      {
        "start": 10140.008231,
        "end": 11082.005828,
        "title": "Kapitel 13"
      },
      {
        "start": 11082.005828,
        "end": 11882.014195,
        "title": "Kapitel 14"
      },
      {
        "start": 11882.014195,
        "end": 13000.021429,
        "title": "Kapitel 15"
      },
      {
        "start": 13000.021429,
        "end": 13846.018186,
        "title": "Kapitel 16"
      },
      {
        "start": 13846.018186,
        "end": 14412.007868,
        "title": "Kapitel 17"
      },
      {
        "start": 14412.007868,
        "end": 15679.018322,
        "title": "Kapitel 18"
      },
      {
        "start": 15679.018322,
        "end": 16714.014263,
        "title": "Kapitel 19"
      },
      {
        "start": 16714.014263,
        "end": 17669.010363,
        "title": "Kapitel 20"
      },
      {
        "start": 17669.010363,
        "end": 18194.020431,
        "title": "Kapitel 21"
      },
      {
        "start": 18194.020431,
        "end": 18878.003878,
        "title": "Kapitel 22"
      },
      {
        "start": 18878.003878,
        "end": 20068.017029,
        "title": "Kapitel 23"
      },
      {
        "start": 20068.017029,
        "end": 21068.019977,
        "title": "Kapitel 24"
      },
      {
        "start": 21068.019977,
        "end": 22329.010113,
        "title": "Kapitel 25"
      },
      {
        "start": 22329.010113,
        "end": 22810.008571,
        "title": "Kapitel 26"
      },
      {
        "start": 22810.008571,
        "end": 23465.018322,
        "title": "Kapitel 27"
      },
      {
        "start": 23465.018322,
        "end": 24085.009274,
        "title": "Kapitel 28"
      },
      {
        "start": 24085.009274,
        "end": 24928.019274,
        "title": "Kapitel 29"
      },
      {
        "start": 24928.019274,
        "end": 25679.00619,
        "title": "Kapitel 30"
      },
      {
        "start": 25679.00619,
        "end": 26690.015601,
        "title": "Kapitel 31"
      },
      {
        "start": 26690.015601,
        "end": 27311.751837,
        "title": "Kapitel 32"
      }
    ]
  },
  "pymediainfo": {},
  "ffprobe": {},
  "ffmpeg": {},
  "tinytag": {},
  "eyed3": {},
  "music_tag": {}
}